<?xml version="1.0" encoding="UTF-8" standalone="no"?>
<!DOCTYPE svg PUBLIC "-//W3C//DTD SVG 1.1//EN"
 "http://www.w3.org/Graphics/SVG/1.1/DTD/svg11.dtd">
<!-- Generated by graphviz version 2.42.3 (20191010.1750)
 -->
<!-- Title: G Pages: 1 -->
<svg width="332pt" height="1632pt"
 viewBox="0.00 0.00 332.00 1632.00" xmlns="http://www.w3.org/2000/svg" xmlns:xlink="http://www.w3.org/1999/xlink">
<g id="graph0" class="graph" transform="scale(1 1) rotate(0) translate(4 1628)">
<title>G</title>
<polygon fill="white" stroke="transparent" points="-4,4 -4,-1628 328,-1628 328,4 -4,4"/>
<!-- 140390731079312 -->
<g id="node1" class="node">
<title>140390731079312</title>
<g id="a_node1"><a xlink:title="Input">
<path fill="lightskyblue" stroke="black" d="M41,-1577.5C41,-1577.5 283,-1577.5 283,-1577.5 289,-1577.5 295,-1583.5 295,-1589.5 295,-1589.5 295,-1611.5 295,-1611.5 295,-1617.5 289,-1623.5 283,-1623.5 283,-1623.5 41,-1623.5 41,-1623.5 35,-1623.5 29,-1617.5 29,-1611.5 29,-1611.5 29,-1589.5 29,-1589.5 29,-1583.5 35,-1577.5 41,-1577.5"/>
<text text-anchor="middle" x="99.5" y="-1608.3" font-family="Times,serif" font-size="14.00">Name: Input</text>
<polyline fill="none" stroke="black" points="29,-1600.5 170,-1600.5 "/>
<text text-anchor="middle" x="99.5" y="-1585.3" font-family="Times,serif" font-size="14.00">Type: InputLayer</text>
<polyline fill="none" stroke="black" points="170,-1577.5 170,-1623.5 "/>
<text text-anchor="middle" x="232.5" y="-1596.8" font-family="Times,serif" font-size="14.00">Device: INPUT</text>
</a>
</g>
</g>
<!-- 140390677102864 -->
<g id="node2" class="node">
<title>140390677102864</title>
<g id="a_node2"><a xlink:title="dense0">
<path fill="lightskyblue" stroke="black" d="M22,-1494.5C22,-1494.5 302,-1494.5 302,-1494.5 308,-1494.5 314,-1500.5 314,-1506.5 314,-1506.5 314,-1528.5 314,-1528.5 314,-1534.5 308,-1540.5 302,-1540.5 302,-1540.5 22,-1540.5 22,-1540.5 16,-1540.5 10,-1534.5 10,-1528.5 10,-1528.5 10,-1506.5 10,-1506.5 10,-1500.5 16,-1494.5 22,-1494.5"/>
<text text-anchor="middle" x="108.5" y="-1525.3" font-family="Times,serif" font-size="14.00">Name: dense0</text>
<polyline fill="none" stroke="black" points="10,-1517.5 207,-1517.5 "/>
<text text-anchor="middle" x="62.5" y="-1502.3" font-family="Times,serif" font-size="14.00">Type: Dense</text>
<polyline fill="none" stroke="black" points="115,-1494.5 115,-1517.5 "/>
<text text-anchor="middle" x="161" y="-1502.3" font-family="Times,serif" font-size="14.00">Act: linear</text>
<polyline fill="none" stroke="black" points="207,-1494.5 207,-1540.5 "/>
<text text-anchor="middle" x="260.5" y="-1513.8" font-family="Times,serif" font-size="14.00">Device: DPU</text>
</a>
</g>
</g>
<!-- 140390731079312&#45;&gt;140390677102864 -->
<g id="edge1" class="edge">
<title>140390731079312&#45;&gt;140390677102864</title>
<path fill="none" stroke="black" d="M162,-1577.37C162,-1569.15 162,-1559.66 162,-1550.73"/>
<polygon fill="black" stroke="black" points="165.5,-1550.61 162,-1540.61 158.5,-1550.61 165.5,-1550.61"/>
</g>
<!-- 140390676816144 -->
<g id="node3" class="node">
<title>140390676816144</title>
<g id="a_node3"><a xlink:title="Folded into previous layer dense0">
<path fill="lightskyblue" stroke="black" d="M18,-1411.5C18,-1411.5 306,-1411.5 306,-1411.5 312,-1411.5 318,-1417.5 318,-1423.5 318,-1423.5 318,-1445.5 318,-1445.5 318,-1451.5 312,-1457.5 306,-1457.5 306,-1457.5 18,-1457.5 18,-1457.5 12,-1457.5 6,-1451.5 6,-1445.5 6,-1445.5 6,-1423.5 6,-1423.5 6,-1417.5 12,-1411.5 18,-1411.5"/>
<text text-anchor="middle" x="108.5" y="-1442.3" font-family="Times,serif" font-size="14.00">Name: bn0</text>
<polyline fill="none" stroke="black" points="6,-1434.5 211,-1434.5 "/>
<text text-anchor="middle" x="108.5" y="-1419.3" font-family="Times,serif" font-size="14.00">Type: BatchNormalization</text>
<polyline fill="none" stroke="black" points="211,-1411.5 211,-1457.5 "/>
<text text-anchor="middle" x="264.5" y="-1430.8" font-family="Times,serif" font-size="14.00">Device: DPU</text>
</a>
</g>
</g>
<!-- 140390677102864&#45;&gt;140390676816144 -->
<g id="edge2" class="edge">
<title>140390677102864&#45;&gt;140390676816144</title>
<path fill="none" stroke="black" d="M162,-1494.37C162,-1486.15 162,-1476.66 162,-1467.73"/>
<polygon fill="black" stroke="black" points="165.5,-1467.61 162,-1457.61 158.5,-1467.61 165.5,-1467.61"/>
</g>
<!-- 140390676517392 -->
<g id="node4" class="node">
<title>140390676517392</title>
<g id="a_node4"><a xlink:title="Converted alpha 0.1 to 26./256. to match DPU implementation">
<path fill="lightskyblue" stroke="black" d="M46,-1328.5C46,-1328.5 278,-1328.5 278,-1328.5 284,-1328.5 290,-1334.5 290,-1340.5 290,-1340.5 290,-1362.5 290,-1362.5 290,-1368.5 284,-1374.5 278,-1374.5 278,-1374.5 46,-1374.5 46,-1374.5 40,-1374.5 34,-1368.5 34,-1362.5 34,-1362.5 34,-1340.5 34,-1340.5 34,-1334.5 40,-1328.5 46,-1328.5"/>
<text text-anchor="middle" x="108.5" y="-1359.3" font-family="Times,serif" font-size="14.00">Name: activation0</text>
<polyline fill="none" stroke="black" points="34,-1351.5 183,-1351.5 "/>
<text text-anchor="middle" x="108.5" y="-1336.3" font-family="Times,serif" font-size="14.00">Type: LeakyReLU</text>
<polyline fill="none" stroke="black" points="183,-1328.5 183,-1374.5 "/>
<text text-anchor="middle" x="236.5" y="-1347.8" font-family="Times,serif" font-size="14.00">Device: DPU</text>
</a>
</g>
</g>
<!-- 140390676816144&#45;&gt;140390676517392 -->
<g id="edge3" class="edge">
<title>140390676816144&#45;&gt;140390676517392</title>
<path fill="none" stroke="black" d="M162,-1411.37C162,-1403.15 162,-1393.66 162,-1384.73"/>
<polygon fill="black" stroke="black" points="165.5,-1384.61 162,-1374.61 158.5,-1384.61 165.5,-1384.61"/>
</g>
<!-- 140390676518928 -->
<g id="node5" class="node">
<title>140390676518928</title>
<g id="a_node5"><a xlink:title="reshape_1">
<path fill="lightskyblue" stroke="black" d="M49.5,-1245.5C49.5,-1245.5 274.5,-1245.5 274.5,-1245.5 280.5,-1245.5 286.5,-1251.5 286.5,-1257.5 286.5,-1257.5 286.5,-1279.5 286.5,-1279.5 286.5,-1285.5 280.5,-1291.5 274.5,-1291.5 274.5,-1291.5 49.5,-1291.5 49.5,-1291.5 43.5,-1291.5 37.5,-1285.5 37.5,-1279.5 37.5,-1279.5 37.5,-1257.5 37.5,-1257.5 37.5,-1251.5 43.5,-1245.5 49.5,-1245.5"/>
<text text-anchor="middle" x="108.5" y="-1276.3" font-family="Times,serif" font-size="14.00">Name: reshape_1</text>
<polyline fill="none" stroke="black" points="37.5,-1268.5 179.5,-1268.5 "/>
<text text-anchor="middle" x="108.5" y="-1253.3" font-family="Times,serif" font-size="14.00">Type: Reshape</text>
<polyline fill="none" stroke="black" points="179.5,-1245.5 179.5,-1291.5 "/>
<text text-anchor="middle" x="233" y="-1264.8" font-family="Times,serif" font-size="14.00">Device: DPU</text>
</a>
</g>
</g>
<!-- 140390676517392&#45;&gt;140390676518928 -->
<g id="edge4" class="edge">
<title>140390676517392&#45;&gt;140390676518928</title>
<path fill="none" stroke="black" d="M162,-1328.37C162,-1320.15 162,-1310.66 162,-1301.73"/>
<polygon fill="black" stroke="black" points="165.5,-1301.61 162,-1291.61 158.5,-1301.61 165.5,-1301.61"/>
</g>
<!-- 140390676520400 -->
<g id="node6" class="node">
<title>140390676520400</title>
<g id="a_node6"><a xlink:title="upsampling1">
<path fill="lightskyblue" stroke="black" d="M35.5,-1162.5C35.5,-1162.5 288.5,-1162.5 288.5,-1162.5 294.5,-1162.5 300.5,-1168.5 300.5,-1174.5 300.5,-1174.5 300.5,-1196.5 300.5,-1196.5 300.5,-1202.5 294.5,-1208.5 288.5,-1208.5 288.5,-1208.5 35.5,-1208.5 35.5,-1208.5 29.5,-1208.5 23.5,-1202.5 23.5,-1196.5 23.5,-1196.5 23.5,-1174.5 23.5,-1174.5 23.5,-1168.5 29.5,-1162.5 35.5,-1162.5"/>
<text text-anchor="middle" x="108.5" y="-1193.3" font-family="Times,serif" font-size="14.00">Name: upsampling1</text>
<polyline fill="none" stroke="black" points="23.5,-1185.5 193.5,-1185.5 "/>
<text text-anchor="middle" x="108.5" y="-1170.3" font-family="Times,serif" font-size="14.00">Type: UpSampling2D</text>
<polyline fill="none" stroke="black" points="193.5,-1162.5 193.5,-1208.5 "/>
<text text-anchor="middle" x="247" y="-1181.8" font-family="Times,serif" font-size="14.00">Device: DPU</text>
</a>
</g>
</g>
<!-- 140390676518928&#45;&gt;140390676520400 -->
<g id="edge5" class="edge">
<title>140390676518928&#45;&gt;140390676520400</title>
<path fill="none" stroke="black" d="M162,-1245.37C162,-1237.15 162,-1227.66 162,-1218.73"/>
<polygon fill="black" stroke="black" points="165.5,-1218.61 162,-1208.61 158.5,-1218.61 165.5,-1218.61"/>
</g>
<!-- 140390676588560 -->
<g id="node7" class="node">
<title>140390676588560</title>
<g id="a_node7"><a xlink:title="conv1">
<path fill="lightskyblue" stroke="black" d="M15.5,-1079.5C15.5,-1079.5 308.5,-1079.5 308.5,-1079.5 314.5,-1079.5 320.5,-1085.5 320.5,-1091.5 320.5,-1091.5 320.5,-1113.5 320.5,-1113.5 320.5,-1119.5 314.5,-1125.5 308.5,-1125.5 308.5,-1125.5 15.5,-1125.5 15.5,-1125.5 9.5,-1125.5 3.5,-1119.5 3.5,-1113.5 3.5,-1113.5 3.5,-1091.5 3.5,-1091.5 3.5,-1085.5 9.5,-1079.5 15.5,-1079.5"/>
<text text-anchor="middle" x="108.5" y="-1110.3" font-family="Times,serif" font-size="14.00">Name: conv1</text>
<polyline fill="none" stroke="black" points="3.5,-1102.5 213.5,-1102.5 "/>
<text text-anchor="middle" x="62.5" y="-1087.3" font-family="Times,serif" font-size="14.00">Type: Conv2D</text>
<polyline fill="none" stroke="black" points="121.5,-1079.5 121.5,-1102.5 "/>
<text text-anchor="middle" x="167.5" y="-1087.3" font-family="Times,serif" font-size="14.00">Act: linear</text>
<polyline fill="none" stroke="black" points="213.5,-1079.5 213.5,-1125.5 "/>
<text text-anchor="middle" x="267" y="-1098.8" font-family="Times,serif" font-size="14.00">Device: DPU</text>
</a>
</g>
</g>
<!-- 140390676520400&#45;&gt;140390676588560 -->
<g id="edge6" class="edge">
<title>140390676520400&#45;&gt;140390676588560</title>
<path fill="none" stroke="black" d="M162,-1162.37C162,-1154.15 162,-1144.66 162,-1135.73"/>
<polygon fill="black" stroke="black" points="165.5,-1135.61 162,-1125.61 158.5,-1135.61 165.5,-1135.61"/>
</g>
<!-- 140390676107408 -->
<g id="node8" class="node">
<title>140390676107408</title>
<g id="a_node8"><a xlink:title="Folded into previous layer conv1">
<path fill="lightskyblue" stroke="black" d="M18,-996.5C18,-996.5 306,-996.5 306,-996.5 312,-996.5 318,-1002.5 318,-1008.5 318,-1008.5 318,-1030.5 318,-1030.5 318,-1036.5 312,-1042.5 306,-1042.5 306,-1042.5 18,-1042.5 18,-1042.5 12,-1042.5 6,-1036.5 6,-1030.5 6,-1030.5 6,-1008.5 6,-1008.5 6,-1002.5 12,-996.5 18,-996.5"/>
<text text-anchor="middle" x="108.5" y="-1027.3" font-family="Times,serif" font-size="14.00">Name: bn1</text>
<polyline fill="none" stroke="black" points="6,-1019.5 211,-1019.5 "/>
<text text-anchor="middle" x="108.5" y="-1004.3" font-family="Times,serif" font-size="14.00">Type: BatchNormalization</text>
<polyline fill="none" stroke="black" points="211,-996.5 211,-1042.5 "/>
<text text-anchor="middle" x="264.5" y="-1015.8" font-family="Times,serif" font-size="14.00">Device: DPU</text>
</a>
</g>
</g>
<!-- 140390676588560&#45;&gt;140390676107408 -->
<g id="edge7" class="edge">
<title>140390676588560&#45;&gt;140390676107408</title>
<path fill="none" stroke="black" d="M162,-1079.37C162,-1071.15 162,-1061.66 162,-1052.73"/>
<polygon fill="black" stroke="black" points="165.5,-1052.61 162,-1042.61 158.5,-1052.61 165.5,-1052.61"/>
</g>
<!-- 140390676120016 -->
<g id="node9" class="node">
<title>140390676120016</title>
<g id="a_node9"><a xlink:title="Converted alpha 0.1 to 26./256. to match DPU implementation">
<path fill="lightskyblue" stroke="black" d="M46,-913.5C46,-913.5 278,-913.5 278,-913.5 284,-913.5 290,-919.5 290,-925.5 290,-925.5 290,-947.5 290,-947.5 290,-953.5 284,-959.5 278,-959.5 278,-959.5 46,-959.5 46,-959.5 40,-959.5 34,-953.5 34,-947.5 34,-947.5 34,-925.5 34,-925.5 34,-919.5 40,-913.5 46,-913.5"/>
<text text-anchor="middle" x="108.5" y="-944.3" font-family="Times,serif" font-size="14.00">Name: activation1</text>
<polyline fill="none" stroke="black" points="34,-936.5 183,-936.5 "/>
<text text-anchor="middle" x="108.5" y="-921.3" font-family="Times,serif" font-size="14.00">Type: LeakyReLU</text>
<polyline fill="none" stroke="black" points="183,-913.5 183,-959.5 "/>
<text text-anchor="middle" x="236.5" y="-932.8" font-family="Times,serif" font-size="14.00">Device: DPU</text>
</a>
</g>
</g>
<!-- 140390676107408&#45;&gt;140390676120016 -->
<g id="edge8" class="edge">
<title>140390676107408&#45;&gt;140390676120016</title>
<path fill="none" stroke="black" d="M162,-996.37C162,-988.15 162,-978.66 162,-969.73"/>
<polygon fill="black" stroke="black" points="165.5,-969.61 162,-959.61 158.5,-969.61 165.5,-969.61"/>
</g>
<!-- 140390676121488 -->
<g id="node10" class="node">
<title>140390676121488</title>
<g id="a_node10"><a xlink:title="upsampling2">
<path fill="lightskyblue" stroke="black" d="M35.5,-830.5C35.5,-830.5 288.5,-830.5 288.5,-830.5 294.5,-830.5 300.5,-836.5 300.5,-842.5 300.5,-842.5 300.5,-864.5 300.5,-864.5 300.5,-870.5 294.5,-876.5 288.5,-876.5 288.5,-876.5 35.5,-876.5 35.5,-876.5 29.5,-876.5 23.5,-870.5 23.5,-864.5 23.5,-864.5 23.5,-842.5 23.5,-842.5 23.5,-836.5 29.5,-830.5 35.5,-830.5"/>
<text text-anchor="middle" x="108.5" y="-861.3" font-family="Times,serif" font-size="14.00">Name: upsampling2</text>
<polyline fill="none" stroke="black" points="23.5,-853.5 193.5,-853.5 "/>
<text text-anchor="middle" x="108.5" y="-838.3" font-family="Times,serif" font-size="14.00">Type: UpSampling2D</text>
<polyline fill="none" stroke="black" points="193.5,-830.5 193.5,-876.5 "/>
<text text-anchor="middle" x="247" y="-849.8" font-family="Times,serif" font-size="14.00">Device: DPU</text>
</a>
</g>
</g>
<!-- 140390676120016&#45;&gt;140390676121488 -->
<g id="edge9" class="edge">
<title>140390676120016&#45;&gt;140390676121488</title>
<path fill="none" stroke="black" d="M162,-913.37C162,-905.15 162,-895.66 162,-886.73"/>
<polygon fill="black" stroke="black" points="165.5,-886.61 162,-876.61 158.5,-886.61 165.5,-886.61"/>
</g>
<!-- 140390676144592 -->
<g id="node11" class="node">
<title>140390676144592</title>
<g id="a_node11"><a xlink:title="conv2">
<path fill="lightskyblue" stroke="black" d="M15.5,-747.5C15.5,-747.5 308.5,-747.5 308.5,-747.5 314.5,-747.5 320.5,-753.5 320.5,-759.5 320.5,-759.5 320.5,-781.5 320.5,-781.5 320.5,-787.5 314.5,-793.5 308.5,-793.5 308.5,-793.5 15.5,-793.5 15.5,-793.5 9.5,-793.5 3.5,-787.5 3.5,-781.5 3.5,-781.5 3.5,-759.5 3.5,-759.5 3.5,-753.5 9.5,-747.5 15.5,-747.5"/>
<text text-anchor="middle" x="108.5" y="-778.3" font-family="Times,serif" font-size="14.00">Name: conv2</text>
<polyline fill="none" stroke="black" points="3.5,-770.5 213.5,-770.5 "/>
<text text-anchor="middle" x="62.5" y="-755.3" font-family="Times,serif" font-size="14.00">Type: Conv2D</text>
<polyline fill="none" stroke="black" points="121.5,-747.5 121.5,-770.5 "/>
<text text-anchor="middle" x="167.5" y="-755.3" font-family="Times,serif" font-size="14.00">Act: linear</text>
<polyline fill="none" stroke="black" points="213.5,-747.5 213.5,-793.5 "/>
<text text-anchor="middle" x="267" y="-766.8" font-family="Times,serif" font-size="14.00">Device: DPU</text>
</a>
</g>
</g>
<!-- 140390676121488&#45;&gt;140390676144592 -->
<g id="edge10" class="edge">
<title>140390676121488&#45;&gt;140390676144592</title>
<path fill="none" stroke="black" d="M162,-830.37C162,-822.15 162,-812.66 162,-803.73"/>
<polygon fill="black" stroke="black" points="165.5,-803.61 162,-793.61 158.5,-803.61 165.5,-803.61"/>
</g>
<!-- 140390676154832 -->
<g id="node12" class="node">
<title>140390676154832</title>
<g id="a_node12"><a xlink:title="Folded into previous layer conv2">
<path fill="lightskyblue" stroke="black" d="M18,-664.5C18,-664.5 306,-664.5 306,-664.5 312,-664.5 318,-670.5 318,-676.5 318,-676.5 318,-698.5 318,-698.5 318,-704.5 312,-710.5 306,-710.5 306,-710.5 18,-710.5 18,-710.5 12,-710.5 6,-704.5 6,-698.5 6,-698.5 6,-676.5 6,-676.5 6,-670.5 12,-664.5 18,-664.5"/>
<text text-anchor="middle" x="108.5" y="-695.3" font-family="Times,serif" font-size="14.00">Name: bn2</text>
<polyline fill="none" stroke="black" points="6,-687.5 211,-687.5 "/>
<text text-anchor="middle" x="108.5" y="-672.3" font-family="Times,serif" font-size="14.00">Type: BatchNormalization</text>
<polyline fill="none" stroke="black" points="211,-664.5 211,-710.5 "/>
<text text-anchor="middle" x="264.5" y="-683.8" font-family="Times,serif" font-size="14.00">Device: DPU</text>
</a>
</g>
</g>
<!-- 140390676144592&#45;&gt;140390676154832 -->
<g id="edge11" class="edge">
<title>140390676144592&#45;&gt;140390676154832</title>
<path fill="none" stroke="black" d="M162,-747.37C162,-739.15 162,-729.66 162,-720.73"/>
<polygon fill="black" stroke="black" points="165.5,-720.61 162,-710.61 158.5,-720.61 165.5,-720.61"/>
</g>
<!-- 140390676183888 -->
<g id="node13" class="node">
<title>140390676183888</title>
<g id="a_node13"><a xlink:title="Converted alpha 0.1 to 26./256. to match DPU implementation">
<path fill="lightskyblue" stroke="black" d="M46,-581.5C46,-581.5 278,-581.5 278,-581.5 284,-581.5 290,-587.5 290,-593.5 290,-593.5 290,-615.5 290,-615.5 290,-621.5 284,-627.5 278,-627.5 278,-627.5 46,-627.5 46,-627.5 40,-627.5 34,-621.5 34,-615.5 34,-615.5 34,-593.5 34,-593.5 34,-587.5 40,-581.5 46,-581.5"/>
<text text-anchor="middle" x="108.5" y="-612.3" font-family="Times,serif" font-size="14.00">Name: activation2</text>
<polyline fill="none" stroke="black" points="34,-604.5 183,-604.5 "/>
<text text-anchor="middle" x="108.5" y="-589.3" font-family="Times,serif" font-size="14.00">Type: LeakyReLU</text>
<polyline fill="none" stroke="black" points="183,-581.5 183,-627.5 "/>
<text text-anchor="middle" x="236.5" y="-600.8" font-family="Times,serif" font-size="14.00">Device: DPU</text>
</a>
</g>
</g>
<!-- 140390676154832&#45;&gt;140390676183888 -->
<g id="edge12" class="edge">
<title>140390676154832&#45;&gt;140390676183888</title>
<path fill="none" stroke="black" d="M162,-664.37C162,-656.15 162,-646.66 162,-637.73"/>
<polygon fill="black" stroke="black" points="165.5,-637.61 162,-627.61 158.5,-637.61 165.5,-637.61"/>
</g>
<!-- 140390676201744 -->
<g id="node14" class="node">
<title>140390676201744</title>
<g id="a_node14"><a xlink:title="upsampling3">
<path fill="lightskyblue" stroke="black" d="M35.5,-498.5C35.5,-498.5 288.5,-498.5 288.5,-498.5 294.5,-498.5 300.5,-504.5 300.5,-510.5 300.5,-510.5 300.5,-532.5 300.5,-532.5 300.5,-538.5 294.5,-544.5 288.5,-544.5 288.5,-544.5 35.5,-544.5 35.5,-544.5 29.5,-544.5 23.5,-538.5 23.5,-532.5 23.5,-532.5 23.5,-510.5 23.5,-510.5 23.5,-504.5 29.5,-498.5 35.5,-498.5"/>
<text text-anchor="middle" x="108.5" y="-529.3" font-family="Times,serif" font-size="14.00">Name: upsampling3</text>
<polyline fill="none" stroke="black" points="23.5,-521.5 193.5,-521.5 "/>
<text text-anchor="middle" x="108.5" y="-506.3" font-family="Times,serif" font-size="14.00">Type: UpSampling2D</text>
<polyline fill="none" stroke="black" points="193.5,-498.5 193.5,-544.5 "/>
<text text-anchor="middle" x="247" y="-517.8" font-family="Times,serif" font-size="14.00">Device: DPU</text>
</a>
</g>
</g>
<!-- 140390676183888&#45;&gt;140390676201744 -->
<g id="edge13" class="edge">
<title>140390676183888&#45;&gt;140390676201744</title>
<path fill="none" stroke="black" d="M162,-581.37C162,-573.15 162,-563.66 162,-554.73"/>
<polygon fill="black" stroke="black" points="165.5,-554.61 162,-544.61 158.5,-554.61 165.5,-554.61"/>
</g>
<!-- 140390676204304 -->
<g id="node15" class="node">
<title>140390676204304</title>
<g id="a_node15"><a xlink:title="conv3">
<path fill="lightskyblue" stroke="black" d="M15.5,-415.5C15.5,-415.5 308.5,-415.5 308.5,-415.5 314.5,-415.5 320.5,-421.5 320.5,-427.5 320.5,-427.5 320.5,-449.5 320.5,-449.5 320.5,-455.5 314.5,-461.5 308.5,-461.5 308.5,-461.5 15.5,-461.5 15.5,-461.5 9.5,-461.5 3.5,-455.5 3.5,-449.5 3.5,-449.5 3.5,-427.5 3.5,-427.5 3.5,-421.5 9.5,-415.5 15.5,-415.5"/>
<text text-anchor="middle" x="108.5" y="-446.3" font-family="Times,serif" font-size="14.00">Name: conv3</text>
<polyline fill="none" stroke="black" points="3.5,-438.5 213.5,-438.5 "/>
<text text-anchor="middle" x="62.5" y="-423.3" font-family="Times,serif" font-size="14.00">Type: Conv2D</text>
<polyline fill="none" stroke="black" points="121.5,-415.5 121.5,-438.5 "/>
<text text-anchor="middle" x="167.5" y="-423.3" font-family="Times,serif" font-size="14.00">Act: linear</text>
<polyline fill="none" stroke="black" points="213.5,-415.5 213.5,-461.5 "/>
<text text-anchor="middle" x="267" y="-434.8" font-family="Times,serif" font-size="14.00">Device: DPU</text>
</a>
</g>
</g>
<!-- 140390676201744&#45;&gt;140390676204304 -->
<g id="edge14" class="edge">
<title>140390676201744&#45;&gt;140390676204304</title>
<path fill="none" stroke="black" d="M162,-498.37C162,-490.15 162,-480.66 162,-471.73"/>
<polygon fill="black" stroke="black" points="165.5,-471.61 162,-461.61 158.5,-471.61 165.5,-471.61"/>
</g>
<!-- 140390676222864 -->
<g id="node16" class="node">
<title>140390676222864</title>
<g id="a_node16"><a xlink:title="Folded into previous layer conv3">
<path fill="lightskyblue" stroke="black" d="M18,-332.5C18,-332.5 306,-332.5 306,-332.5 312,-332.5 318,-338.5 318,-344.5 318,-344.5 318,-366.5 318,-366.5 318,-372.5 312,-378.5 306,-378.5 306,-378.5 18,-378.5 18,-378.5 12,-378.5 6,-372.5 6,-366.5 6,-366.5 6,-344.5 6,-344.5 6,-338.5 12,-332.5 18,-332.5"/>
<text text-anchor="middle" x="108.5" y="-363.3" font-family="Times,serif" font-size="14.00">Name: bn3</text>
<polyline fill="none" stroke="black" points="6,-355.5 211,-355.5 "/>
<text text-anchor="middle" x="108.5" y="-340.3" font-family="Times,serif" font-size="14.00">Type: BatchNormalization</text>
<polyline fill="none" stroke="black" points="211,-332.5 211,-378.5 "/>
<text text-anchor="middle" x="264.5" y="-351.8" font-family="Times,serif" font-size="14.00">Device: DPU</text>
</a>
</g>
</g>
<!-- 140390676204304&#45;&gt;140390676222864 -->
<g id="edge15" class="edge">
<title>140390676204304&#45;&gt;140390676222864</title>
<path fill="none" stroke="black" d="M162,-415.37C162,-407.15 162,-397.66 162,-388.73"/>
<polygon fill="black" stroke="black" points="165.5,-388.61 162,-378.61 158.5,-388.61 165.5,-388.61"/>
</g>
<!-- 140390676239696 -->
<g id="node17" class="node">
<title>140390676239696</title>
<g id="a_node17"><a xlink:title="Converted alpha 0.1 to 26./256. to match DPU implementation">
<path fill="lightskyblue" stroke="black" d="M46,-249.5C46,-249.5 278,-249.5 278,-249.5 284,-249.5 290,-255.5 290,-261.5 290,-261.5 290,-283.5 290,-283.5 290,-289.5 284,-295.5 278,-295.5 278,-295.5 46,-295.5 46,-295.5 40,-295.5 34,-289.5 34,-283.5 34,-283.5 34,-261.5 34,-261.5 34,-255.5 40,-249.5 46,-249.5"/>
<text text-anchor="middle" x="108.5" y="-280.3" font-family="Times,serif" font-size="14.00">Name: activation3</text>
<polyline fill="none" stroke="black" points="34,-272.5 183,-272.5 "/>
<text text-anchor="middle" x="108.5" y="-257.3" font-family="Times,serif" font-size="14.00">Type: LeakyReLU</text>
<polyline fill="none" stroke="black" points="183,-249.5 183,-295.5 "/>
<text text-anchor="middle" x="236.5" y="-268.8" font-family="Times,serif" font-size="14.00">Device: DPU</text>
</a>
</g>
</g>
<!-- 140390676222864&#45;&gt;140390676239696 -->
<g id="edge16" class="edge">
<title>140390676222864&#45;&gt;140390676239696</title>
<path fill="none" stroke="black" d="M162,-332.37C162,-324.15 162,-314.66 162,-305.73"/>
<polygon fill="black" stroke="black" points="165.5,-305.61 162,-295.61 158.5,-305.61 165.5,-305.61"/>
</g>
<!-- 140390676241168 -->
<g id="node18" class="node">
<title>140390676241168</title>
<g id="a_node18"><a xlink:title="conv_out">
<path fill="lightskyblue" stroke="black" d="M15.5,-166.5C15.5,-166.5 308.5,-166.5 308.5,-166.5 314.5,-166.5 320.5,-172.5 320.5,-178.5 320.5,-178.5 320.5,-200.5 320.5,-200.5 320.5,-206.5 314.5,-212.5 308.5,-212.5 308.5,-212.5 15.5,-212.5 15.5,-212.5 9.5,-212.5 3.5,-206.5 3.5,-200.5 3.5,-200.5 3.5,-178.5 3.5,-178.5 3.5,-172.5 9.5,-166.5 15.5,-166.5"/>
<text text-anchor="middle" x="108.5" y="-197.3" font-family="Times,serif" font-size="14.00">Name: conv_out</text>
<polyline fill="none" stroke="black" points="3.5,-189.5 213.5,-189.5 "/>
<text text-anchor="middle" x="62.5" y="-174.3" font-family="Times,serif" font-size="14.00">Type: Conv2D</text>
<polyline fill="none" stroke="black" points="121.5,-166.5 121.5,-189.5 "/>
<text text-anchor="middle" x="167.5" y="-174.3" font-family="Times,serif" font-size="14.00">Act: linear</text>
<polyline fill="none" stroke="black" points="213.5,-166.5 213.5,-212.5 "/>
<text text-anchor="middle" x="267" y="-185.8" font-family="Times,serif" font-size="14.00">Device: DPU</text>
</a>
</g>
</g>
<!-- 140390676239696&#45;&gt;140390676241168 -->
<g id="edge17" class="edge">
<title>140390676239696&#45;&gt;140390676241168</title>
<path fill="none" stroke="black" d="M162,-249.37C162,-241.15 162,-231.66 162,-222.73"/>
<polygon fill="black" stroke="black" points="165.5,-222.61 162,-212.61 158.5,-222.61 165.5,-222.61"/>
</g>
<!-- 140390676266768 -->
<g id="node19" class="node">
<title>140390676266768</title>
<g id="a_node19"><a xlink:title="Conv2D&lt;tanh&gt; not supported, supported act types are [&#39;relu&#39;, &#39;leaky_relu&#39;, &#39;relu_six&#39;]; Standalone activation `tanh` is not supported">
<path fill="#ff3030" stroke="black" d="M12,-83.5C12,-83.5 312,-83.5 312,-83.5 318,-83.5 324,-89.5 324,-95.5 324,-95.5 324,-117.5 324,-117.5 324,-123.5 318,-129.5 312,-129.5 312,-129.5 12,-129.5 12,-129.5 6,-129.5 0,-123.5 0,-117.5 0,-117.5 0,-95.5 0,-95.5 0,-89.5 6,-83.5 12,-83.5"/>
<text text-anchor="middle" x="108.5" y="-114.3" font-family="Times,serif" font-size="14.00">Name: activation_out</text>
<polyline fill="none" stroke="black" points="0,-106.5 217,-106.5 "/>
<text text-anchor="middle" x="67" y="-91.3" font-family="Times,serif" font-size="14.00">Type: Activation</text>
<polyline fill="none" stroke="black" points="134,-83.5 134,-106.5 "/>
<text text-anchor="middle" x="175.5" y="-91.3" font-family="Times,serif" font-size="14.00">Act: tanh</text>
<polyline fill="none" stroke="black" points="217,-83.5 217,-129.5 "/>
<text text-anchor="middle" x="270.5" y="-102.8" font-family="Times,serif" font-size="14.00">Device: CPU</text>
</a>
</g>
</g>
<!-- 140390676241168&#45;&gt;140390676266768 -->
<g id="edge18" class="edge">
<title>140390676241168&#45;&gt;140390676266768</title>
<path fill="none" stroke="black" d="M162,-166.37C162,-158.15 162,-148.66 162,-139.73"/>
<polygon fill="black" stroke="black" points="165.5,-139.61 162,-129.61 158.5,-139.61 165.5,-139.61"/>
</g>
<!-- 140390676280656 -->
<g id="node20" class="node">
<title>140390676280656</title>
<g id="a_node20"><a xlink:title="`Cropping2D` is not supported by target">
<path fill="#ff3030" stroke="black" d="M46.5,-0.5C46.5,-0.5 277.5,-0.5 277.5,-0.5 283.5,-0.5 289.5,-6.5 289.5,-12.5 289.5,-12.5 289.5,-34.5 289.5,-34.5 289.5,-40.5 283.5,-46.5 277.5,-46.5 277.5,-46.5 46.5,-46.5 46.5,-46.5 40.5,-46.5 34.5,-40.5 34.5,-34.5 34.5,-34.5 34.5,-12.5 34.5,-12.5 34.5,-6.5 40.5,-0.5 46.5,-0.5"/>
<text text-anchor="middle" x="108.5" y="-31.3" font-family="Times,serif" font-size="14.00">Name: cropping</text>
<polyline fill="none" stroke="black" points="34.5,-23.5 182.5,-23.5 "/>
<text text-anchor="middle" x="108.5" y="-8.3" font-family="Times,serif" font-size="14.00">Type: Cropping2D</text>
<polyline fill="none" stroke="black" points="182.5,-0.5 182.5,-46.5 "/>
<text text-anchor="middle" x="236" y="-19.8" font-family="Times,serif" font-size="14.00">Device: CPU</text>
</a>
</g>
</g>
<!-- 140390676266768&#45;&gt;140390676280656 -->
<g id="edge19" class="edge">
<title>140390676266768&#45;&gt;140390676280656</title>
<path fill="none" stroke="black" d="M162,-83.37C162,-75.15 162,-65.66 162,-56.73"/>
<polygon fill="black" stroke="black" points="165.5,-56.61 162,-46.61 158.5,-56.61 165.5,-56.61"/>
</g>
</g>
</svg>
